<svg viewBox="0 0 900 185" xmlns="http://www.w3.org/2000/svg" role="img" aria-label="AutoML">
  <style>
    .title { font: 700 54px "Space Grotesk", "IBM Plex Sans", "Inter", system-ui, -apple-system, "Segoe UI", sans-serif; }
    .tagline { font: 500 20px "Space Grotesk", "IBM Plex Sans", "Inter", system-ui, -apple-system, "Segoe UI", sans-serif; }
    .subline { font: 400 16px "Space Grotesk", "IBM Plex Sans", "Inter", system-ui, -apple-system, "Segoe UI", sans-serif; }
    
    /* Light mode (default) */
    .icon-stroke { stroke: #374151; }
    .icon-fill { fill: #374151; }
    .title-text { fill: #111827; }
    .tagline-text { fill: #4b5563; }
    .subline-text { fill: #6b7280; }
    
    /* Dark mode */
    @media (prefers-color-scheme: dark) {
      .icon-stroke { stroke: #e5e7eb; }
      .icon-fill { fill: #e5e7eb; }
      .title-text { fill: #f9fafb; }
      .tagline-text { fill: #e5e7eb; }
      .subline-text { fill: #cbd5e1; }
    }
  </style>

  <!-- Icon -->
  <g transform="translate(36 54) scale(2.4)" fill="none" class="icon-stroke">
    <path d="M4 24C4 24 8 20 16 20C24 20 28 24 28 24" stroke-width="2.5" stroke-linecap="round" opacity="0.4"/>
    <path d="M7 18C7 18 10 14 16 14C22 14 25 18 25 18" stroke-width="2.5" stroke-linecap="round" opacity="0.7"/>
    <path d="M10 12C10 12 12 9 16 9C20 9 22 12 22 12" stroke-width="2.5" stroke-linecap="round"/>
    <circle cx="16" cy="5" r="2.5" class="icon-fill" stroke="none"/>
    <path d="M13 9L15 6" stroke-width="2" stroke-linecap="round"/>
    <path d="M19 9L17 6" stroke-width="2" stroke-linecap="round"/>
  </g>

  <!-- Text -->
  <text x="136" y="96" class="title title-text">AutoML</text>
  <text x="136" y="132" class="tagline tagline-text">Automated Data Scientist platform</text>
  <text x="136" y="158" class="subline subline-text">LLM + RAG + MCP with HPO + SFT for production ML</text>
</svg>
