<svg xmlns="http://www.w3.org/2000/svg" viewBox="0 0 360 240" fill="none">
  <path d="M 180,210 L 40,140 L 180,70 L 320,140 Z" fill="rgba(255,255,255,0.015)" stroke="rgba(255,255,255,0.08)" stroke-width="1"/>
  <path d="M 40,140 L 180,210 L 180,220 L 40,150 Z" fill="rgba(255,255,255,0.01)" stroke="rgba(255,255,255,0.05)" stroke-width="0.5"/>
  <path d="M 180,210 L 320,140 L 320,150 L 180,220 Z" fill="rgba(255,255,255,0.005)" stroke="rgba(255,255,255,0.03)" stroke-width="0.5"/>
  <path d="M 203.1,180.0 L 203.4,181.5 L 203.0,183.1 L 202.0,184.6 L 200.5,185.9 L 198.6,187.2 L 196.5,188.2 L 194.0,189.2 L 191.4,189.9 L 188.6,190.3 L 185.7,190.6 L 182.8,190.6 L 180.0,190.4 L 177.3,190.2 L 174.6,190.0 L 171.8,189.9 L 168.9,189.6 L 165.9,189.2 L 163.0,188.5 L 160.5,187.5 L 158.6,186.2 L 157.6,184.6 L 157.3,183.0 L 157.5,181.5 L 158.1,180.0 L 158.8,178.6 L 159.6,177.3 L 160.5,176.0 L 161.6,174.7 L 162.9,173.5 L 164.7,172.3 L 166.7,171.3 L 168.9,170.4 L 171.3,169.5 L 174.0,168.8 L 176.9,168.2 L 180.0,167.9 L 183.2,167.9 L 186.3,168.3 L 189.1,169.1 L 191.4,170.1 L 193.3,171.4 L 194.8,172.6 L 196.2,173.8 L 197.6,174.9 L 199.1,176.0 L 200.7,177.2 L 202.1,178.5 Z" fill="rgba(255,255,255,0.015)" stroke="rgba(255,255,255,0.100)" stroke-width="0.8" stroke-linejoin="round"/>
  <path d="M 225.0,172.5 L 225.8,175.5 L 225.2,178.6 L 223.2,181.5 L 220.2,184.1 L 216.5,186.5 L 212.2,188.6 L 207.4,190.4 L 202.2,191.7 L 196.6,192.6 L 190.9,192.9 L 185.4,192.8 L 180.0,192.5 L 174.9,192.0 L 169.7,191.7 L 164.3,191.5 L 158.4,191.2 L 152.4,190.5 L 146.5,189.2 L 141.5,187.3 L 137.8,184.7 L 135.9,181.6 L 135.4,178.5 L 136.2,175.4 L 137.5,172.5 L 139.1,169.8 L 140.7,167.2 L 142.4,164.7 L 144.5,162.2 L 147.1,159.9 L 150.3,157.7 L 154.2,155.7 L 158.4,153.8 L 163.1,152.2 L 168.3,150.7 L 173.9,149.4 L 180.0,148.7 L 186.3,148.7 L 192.3,149.5 L 197.8,151.1 L 202.2,153.3 L 205.6,155.8 L 208.4,158.3 L 210.9,160.6 L 213.6,162.8 L 216.7,164.9 L 220.0,167.1 L 222.9,169.7 Z" fill="rgba(255,255,255,0.017)" stroke="rgba(255,255,255,0.125)" stroke-width="0.8" stroke-linejoin="round"/>
  <path d="M 247.2,165.0 L 248.6,169.5 L 247.8,174.1 L 244.8,178.4 L 240.3,182.4 L 234.6,186.0 L 228.1,189.1 L 220.9,191.7 L 213.0,193.6 L 204.7,194.8 L 196.2,195.2 L 187.9,194.9 L 180.0,194.2 L 172.5,193.6 L 164.9,193.2 L 156.8,193.0 L 148.0,192.7 L 138.7,191.9 L 129.7,190.1 L 122.0,187.3 L 116.5,183.3 L 113.6,178.7 L 113.3,173.9 L 114.8,169.3 L 117.2,165.0 L 119.7,161.0 L 122.2,157.3 L 124.7,153.6 L 127.7,149.9 L 131.5,146.4 L 136.2,143.1 L 141.8,140.1 L 148.0,137.3 L 154.9,134.7 L 162.5,132.4 L 170.9,130.5 L 180.0,129.2 L 189.4,129.1 L 198.6,130.4 L 206.6,132.9 L 213.0,136.4 L 217.9,140.3 L 221.6,144.2 L 225.1,147.7 L 229.0,150.8 L 233.7,153.9 L 238.9,157.1 L 243.7,160.8 Z" fill="rgba(255,255,255,0.020)" stroke="rgba(255,255,255,0.150)" stroke-width="0.8" stroke-linejoin="round"/>
  <path d="M 269.5,157.5 L 271.7,163.5 L 270.7,169.7 L 266.8,175.5 L 260.7,180.8 L 253.0,185.5 L 244.2,189.6 L 234.5,193.0 L 223.9,195.5 L 212.7,197.0 L 201.4,197.4 L 190.3,196.8 L 180.0,195.8 L 170.2,194.8 L 160.3,194.3 L 149.6,194.2 L 137.7,194.1 L 125.0,193.4 L 112.5,191.2 L 101.9,187.5 L 94.5,182.2 L 90.9,176.0 L 90.9,169.4 L 93.4,163.2 L 97.0,157.5 L 100.7,152.3 L 104.1,147.3 L 107.5,142.5 L 111.3,137.7 L 116.1,133.0 L 122.2,128.6 L 129.5,124.6 L 137.7,120.9 L 146.7,117.3 L 156.7,114.0 L 167.8,111.3 L 180.0,109.5 L 192.7,109.3 L 204.9,111.0 L 215.6,114.6 L 223.9,119.5 L 230.0,124.9 L 234.5,130.2 L 238.8,135.0 L 243.9,139.1 L 250.3,142.9 L 257.5,147.1 L 264.4,151.9 Z" fill="rgba(255,255,255,0.022)" stroke="rgba(255,255,255,0.175)" stroke-width="0.8" stroke-linejoin="round"/>
  <path d="M 292.0,150.0 L 295.2,157.6 L 294.1,165.3 L 289.2,172.6 L 281.4,179.3 L 271.6,185.1 L 260.5,190.2 L 248.2,194.5 L 234.9,197.5 L 220.8,199.2 L 206.5,199.4 L 192.8,198.5 L 180.0,197.0 L 167.9,195.8 L 155.8,195.2 L 142.4,195.4 L 127.4,195.6 L 111.1,194.9 L 95.0,192.5 L 81.3,187.9 L 71.9,181.2 L 67.6,173.3 L 68.1,165.0 L 71.8,157.1 L 77.0,150.0 L 82.0,143.6 L 86.5,137.5 L 90.6,131.5 L 95.2,125.5 L 101.0,119.7 L 108.5,114.2 L 117.3,109.2 L 127.4,104.4 L 138.5,99.9 L 150.8,95.6 L 164.7,91.9 L 180.0,89.5 L 196.0,89.2 L 211.4,91.4 L 224.7,96.1 L 234.9,102.5 L 242.0,109.6 L 247.1,116.5 L 251.9,122.4 L 258.1,127.5 L 266.3,132.1 L 275.8,137.2 L 285.0,143.1 Z" fill="rgba(255,255,255,0.025)" stroke="rgba(255,255,255,0.200)" stroke-width="0.8" stroke-linejoin="round"/>
  <path d="M 314.7,142.5 L 319.0,151.7 L 317.9,161.0 L 312.0,169.8 L 302.4,177.8 L 290.5,184.9 L 276.9,191.0 L 262.0,196.0 L 245.9,199.5 L 228.8,201.4 L 211.6,201.4 L 195.1,200.0 L 180.0,198.0 L 165.8,196.4 L 151.4,195.9 L 135.4,196.3 L 117.1,197.0 L 97.0,196.6 L 77.2,193.9 L 60.2,188.4 L 48.7,180.4 L 43.9,170.7 L 45.0,160.6 L 50.3,151.0 L 57.2,142.5 L 63.7,134.8 L 69.2,127.7 L 74.1,120.6 L 79.4,113.5 L 86.2,106.5 L 94.9,99.9 L 105.3,93.8 L 117.1,88.0 L 130.2,82.4 L 144.9,77.0 L 161.5,72.3 L 180.0,69.3 L 199.4,68.8 L 218.0,71.5 L 233.9,77.4 L 245.9,85.5 L 253.8,94.4 L 259.2,102.9 L 264.5,110.1 L 271.7,116.0 L 281.8,121.4 L 293.7,127.3 L 305.6,134.2 Z" fill="rgba(255,255,255,0.028)" stroke="rgba(255,255,255,0.225)" stroke-width="0.8" stroke-linejoin="round"/>
  <path d="M 337.5,135.0 L 343.2,145.7 L 342.1,156.7 L 335.1,167.1 L 323.8,176.5 L 309.6,184.7 L 293.6,191.8 L 276.0,197.5 L 256.9,201.6 L 236.8,203.5 L 216.6,203.3 L 197.5,201.3 L 180.0,198.8 L 163.7,196.8 L 147.2,196.3 L 128.5,197.1 L 106.9,198.3 L 82.8,198.3 L 58.9,195.5 L 38.6,189.2 L 25.0,179.7 L 19.6,168.2 L 21.6,156.2 L 28.6,145.0 L 37.5,135.0 L 45.7,126.2 L 52.4,117.9 L 58.0,109.7 L 64.0,101.5 L 71.6,93.4 L 81.4,85.7 L 93.3,78.5 L 106.9,71.7 L 122.0,64.9 L 138.9,58.4 L 158.3,52.6 L 180.0,48.8 L 202.9,48.1 L 224.8,51.4 L 243.3,58.5 L 256.9,68.4 L 265.5,79.3 L 271.1,89.5 L 276.6,97.9 L 284.8,104.7 L 296.7,110.8 L 311.4,117.4 L 326.1,125.4 Z" fill="rgba(255,255,255,0.030)" stroke="rgba(255,255,255,0.250)" stroke-width="0.8" stroke-linejoin="round"/>
  <path d="M 256.9,68.4 L 265.7,111.2 L 279.3,139.2 L 271.6,166.9 L 236.2,185.1 L 202.7,191.6 L 182.5,190.5" fill="none" stroke="rgba(255,255,255,0.85)" stroke-width="1.2" stroke-linecap="round" stroke-linejoin="round"/>
  <circle cx="256.9" cy="68.4" r="1.5" fill="rgba(255,255,255,0.7)"/>
  <circle cx="265.7" cy="111.2" r="1.5" fill="rgba(255,255,255,0.7)"/>
  <circle cx="279.3" cy="139.2" r="1.5" fill="rgba(255,255,255,0.7)"/>
  <circle cx="271.6" cy="166.9" r="1.5" fill="rgba(255,255,255,0.7)"/>
  <circle cx="236.2" cy="185.1" r="1.5" fill="rgba(255,255,255,0.7)"/>
  <circle cx="202.7" cy="191.6" r="1.5" fill="rgba(255,255,255,0.7)"/>
  <circle cx="182.5" cy="190.5" r="3.5" fill="rgba(255,255,255,1)"/>
  <circle cx="182.5" cy="190.5" r="8" fill="none" stroke="rgba(255,255,255,0.4)" stroke-width="0.6"/>
</svg>